<?xml version="1.0" encoding="UTF-8"?>
<!DOCTYPE svg PUBLIC "-//W3C//DTD SVG 1.1//EN" "http://www.w3.org/Graphics/SVG/1.1/DTD/svg11.dtd">
<svg xmlns="http://www.w3.org/2000/svg" version="1.1" width="1061px" height="938px" style="shape-rendering:geometricPrecision; text-rendering:geometricPrecision; image-rendering:optimizeQuality; fill-rule:evenodd; clip-rule:evenodd" xmlns:xlink="http://www.w3.org/1999/xlink">
<g><path style="opacity:0.988" fill="#00aed9" d="M 498.5,324.5 C 549.478,319.536 591.645,336.202 625,374.5C 631.671,383.167 637.338,392.501 642,402.5C 643.318,405.406 643.652,408.406 643,411.5C 641.829,412.893 640.329,413.727 638.5,414C 613.387,420.704 588.22,427.204 563,433.5C 556.642,429.156 550.809,423.989 545.5,418C 519.31,400.798 492.643,400.132 465.5,416C 428.112,439.473 413.612,472.973 422,516.5C 432.984,546.802 454.651,562.469 487,563.5C 517.139,561.35 539.972,547.35 555.5,521.5C 527.506,520.667 499.506,520.167 471.5,520C 468.634,518.607 467.301,516.274 467.5,513C 473.857,493.262 482.524,474.595 493.5,457C 495.087,456.138 496.754,455.471 498.5,455C 543.5,454.667 588.5,454.333 633.5,454C 662.986,377.537 718.653,335.537 800.5,328C 855.93,323.681 900.764,343.181 935,386.5C 951.925,412.018 960.092,440.184 959.5,471C 959.158,508.699 947.325,542.199 924,571.5C 872.321,631.727 807.487,653.894 729.5,638C 682.108,623.441 649.775,592.941 632.5,546.5C 590.793,620.02 527.793,651.52 443.5,641C 398.766,630.916 365.599,605.749 344,565.5C 323.247,514.033 326.913,464.366 355,416.5C 388.328,363.361 436.161,332.694 498.5,324.5 Z M 800.5,404.5 C 838.391,404.905 862.557,423.239 873,459.5C 877.305,504.393 859.138,536.56 818.5,556C 783.343,570.5 753.176,563.666 728,535.5C 716.744,519.139 712.744,501.139 716,481.5C 726.573,436.424 754.739,410.757 800.5,404.5 Z"/></g>
<g><path style="opacity:0.922" fill="#00aed9" d="M 177.5,404.5 C 228.5,404.5 279.5,404.5 330.5,404.5C 329.03,411.135 325.696,416.635 320.5,421C 268.834,421.5 217.168,421.667 165.5,421.5C 167.899,414.757 171.899,409.09 177.5,404.5 Z"/></g>
<g><path style="opacity:0.974" fill="#00aed9" d="M 288.5,442.5 C 295.226,442.205 301.892,442.538 308.5,443.5C 309.614,444.723 309.781,446.056 309,447.5C 308.176,451.656 306.676,455.489 304.5,459C 237.167,459.5 169.834,459.667 102.5,459.5C 105.105,453.704 108.772,448.538 113.5,444C 172.001,443.833 230.335,443.333 288.5,442.5 Z"/></g>
<g><path style="opacity:0.974" fill="#00aed9" d="M 211.5,481.5 C 241.167,481.5 270.833,481.5 300.5,481.5C 300.958,486.866 300.291,492.033 298.5,497C 266.835,497.5 235.168,497.667 203.5,497.5C 205.085,491.663 207.752,486.33 211.5,481.5 Z"/></g>
</svg>
